<svg width="39" height="39" viewBox="0 0 39 39" fill="none" xmlns="http://www.w3.org/2000/svg">
<path d="M33.0229 4.17782H5.56866C4.90842 4.17782 4.375 4.71124 4.375 5.37148V32.8257C4.375 33.4859 4.90842 34.0194 5.56866 34.0194H33.0229C33.6831 34.0194 34.2165 33.4859 34.2165 32.8257V5.37148C34.2165 4.71124 33.6831 4.17782 33.0229 4.17782ZM27.3269 14.9842C27.3381 15.1595 27.3381 15.3423 27.3381 15.5213C27.3381 20.9973 23.1677 27.305 15.5469 27.305C13.1969 27.305 11.0185 26.6224 9.18322 25.4474C9.51894 25.4847 9.83973 25.4996 10.1829 25.4996C12.1226 25.4996 13.9056 24.8431 15.3268 23.7315C13.5065 23.6942 11.9771 22.5005 11.4549 20.8592C12.0928 20.9525 12.6672 20.9525 13.3237 20.7846C12.3864 20.5942 11.544 20.0852 10.9395 19.344C10.3349 18.6028 10.0057 17.6752 10.0076 16.7187V16.6665C10.5559 16.9761 11.2013 17.1664 11.8764 17.1925C11.3088 16.8142 10.8434 16.3017 10.5213 15.7005C10.1992 15.0993 10.0304 14.4278 10.03 13.7458C10.03 12.9736 10.2314 12.2686 10.5932 11.6569C11.6336 12.9376 12.9318 13.985 14.4035 14.7312C15.8752 15.4773 17.4874 15.9054 19.1354 15.9876C18.5497 13.1713 20.6536 10.8922 23.1826 10.8922C24.3763 10.8922 25.4506 11.392 26.2078 12.1977C27.1441 12.0224 28.0393 11.6718 28.8376 11.2018C28.528 12.1604 27.8789 12.9699 27.0173 13.4809C27.8528 13.3914 28.6586 13.1601 29.4046 12.8356C28.8413 13.6637 28.1363 14.3985 27.3269 14.9842Z" fill="black"/>
</svg>
