<svg width="32" height="33" viewBox="0 0 32 33" fill="none" xmlns="http://www.w3.org/2000/svg">
<path d="M27.0563 1.77465H4.77465C3.02395 1.77465 1.59155 3.20704 1.59155 4.95774V27.2394C1.59155 28.9917 3.02395 30.4225 4.77465 30.4225H15.9155V19.2817H12.7324V15.3426H15.9155V12.0799C15.9155 8.63581 17.8445 6.21666 21.9093 6.21666L24.7788 6.21984V10.3658H22.8737C21.2917 10.3658 20.6901 11.5531 20.6901 12.6545V15.3442H24.7772L23.8732 19.2817H20.6901V30.4225H27.0563C28.807 30.4225 30.2394 28.9917 30.2394 27.2394V4.95774C30.2394 3.20704 28.807 1.77465 27.0563 1.77465Z" fill="black"/>
</svg>
