<svg width="85" height="47" viewBox="0 0 85 47" fill="none" xmlns="http://www.w3.org/2000/svg">
<path d="M0.321347 42V0.984375H5.419V18.8555H10.6924V23.8359H5.419V42H0.321347ZM13.6221 23.8359V18.8555H18.837V0.984375H23.9932V42H18.837V23.8359H13.6221ZM27.3036 38.2354V31.9526C27.3036 31.1555 27.6597 30.3755 28.3719 29.6124C29.2537 28.6967 30.356 28.2388 31.6787 28.2388V30.2992C30.6781 30.2992 29.9829 30.7146 29.5929 31.5456C29.4741 31.7999 29.4148 32.0543 29.4148 32.3087V37.9047C29.4148 38.5321 29.7031 39.0663 30.2796 39.5072C30.6866 39.8125 31.153 39.9651 31.6787 39.9651V42.0254C30.0677 42.0254 28.8213 41.3726 27.9395 40.0668C27.5155 39.4224 27.3036 38.8119 27.3036 38.2354ZM32.7724 42.0254V39.9651C33.6712 39.9651 34.3156 39.5581 34.7056 38.7441C34.8413 38.4728 34.9091 38.2099 34.9091 37.9556V32.3087C34.9091 31.6134 34.6123 31.0623 34.0188 30.6553C33.6457 30.4179 33.2218 30.2992 32.747 30.2992V28.2388C34.3071 28.2388 35.5111 28.8747 36.359 30.1466C36.7829 30.774 36.9949 31.376 36.9949 31.9526V38.2354C36.9949 39.0663 36.6388 39.8718 35.9266 40.6519C35.0956 41.5506 34.0443 42.0085 32.7724 42.0254ZM38.9281 42V31.9526C38.9281 31.0029 39.2842 30.155 39.9964 29.4089C40.7934 28.5949 41.8024 28.1879 43.0234 28.1879V30.2737C42.1077 30.2737 41.5057 30.6722 41.2174 31.4693C41.1326 31.7236 41.0902 31.978 41.0902 32.2324V42H38.9281ZM44.168 30.2737V28.1879C45.4568 28.2219 46.4743 28.6712 47.2204 29.5361C48.0683 28.6712 49.0858 28.2219 50.2728 28.1879V30.2737C49.3571 30.2737 48.7466 30.6722 48.4414 31.4693C48.3566 31.7067 48.3142 31.961 48.3142 32.2324V42H46.1521V32.2324C46.1521 31.3675 45.7875 30.774 45.0583 30.4518C44.787 30.3331 44.4902 30.2737 44.168 30.2737ZM51.4174 30.2737V28.1879C53.0284 28.1879 54.2239 28.8493 55.004 30.172C55.3601 30.7825 55.5382 31.376 55.5382 31.9526V42H53.3761V32.2324C53.3761 31.2997 52.986 30.6892 52.206 30.4009C51.9686 30.3161 51.7057 30.2737 51.4174 30.2737ZM57.4714 38.2354V31.9526C57.4714 31.1555 57.8275 30.3755 58.5397 29.6124C59.4215 28.6967 60.5237 28.2388 61.8464 28.2388V30.2992C60.8459 30.2992 60.1507 30.7146 59.7606 31.5456C59.6419 31.7999 59.5826 32.0543 59.5826 32.3087V37.9047C59.5826 38.5321 59.8709 39.0663 60.4474 39.5072C60.8544 39.8125 61.3208 39.9651 61.8464 39.9651V42.0254C60.2355 42.0254 58.9891 41.3726 58.1073 40.0668C57.6833 39.4224 57.4714 38.8119 57.4714 38.2354ZM62.9402 42.0254V39.9651C63.839 39.9651 64.4834 39.5581 64.8734 38.7441C65.0091 38.4728 65.0769 38.2099 65.0769 37.9556V32.3087C65.0769 31.6134 64.7801 31.0623 64.1866 30.6553C63.8135 30.4179 63.3896 30.2992 62.9148 30.2992V28.2388C64.4749 28.2388 65.6789 28.8747 66.5268 30.1466C66.9507 30.774 67.1627 31.376 67.1627 31.9526V38.2354C67.1627 39.0663 66.8066 39.8718 66.0944 40.6519C65.2634 41.5506 64.212 42.0085 62.9402 42.0254ZM69.9098 28.5949H72.072V42.9666C72.072 43.7806 71.7328 44.5861 71.0545 45.3831C70.2405 46.3327 69.2315 46.816 68.0275 46.833H67.0609L67.5442 44.7726H68.053C68.7482 44.7387 69.2909 44.391 69.6809 43.7297C69.8335 43.4584 69.9098 43.204 69.9098 42.9666V28.5949ZM69.7572 26.3565C69.7572 25.8308 70.0031 25.4577 70.4949 25.2373C70.6645 25.1695 70.834 25.1355 71.0036 25.1355C71.5463 25.1355 71.9193 25.3899 72.1228 25.8986C72.1907 26.0343 72.2246 26.1869 72.2246 26.3565C72.2246 26.8991 71.9787 27.2722 71.4869 27.4757C71.3343 27.5435 71.1732 27.5775 71.0036 27.5775C70.4779 27.5775 70.0964 27.34 69.859 26.8652C69.7911 26.6957 69.7572 26.5261 69.7572 26.3565ZM74.2086 38.795C74.2086 39.7277 74.6665 40.5162 75.5822 41.1606C76.3622 41.7032 77.278 41.9746 78.3293 41.9746V39.9905C76.854 39.9566 76.1079 39.397 76.0909 38.3117V37.6249C76.1079 37.2518 76.2096 36.9805 76.3962 36.8109C76.5997 36.6244 77.5069 36.3361 79.1179 35.9461C80.3727 35.6409 81.2206 35.3695 81.6615 35.1321V38.0573C81.6615 39.1596 81.1274 39.7955 80.059 39.9651C79.8895 39.982 79.7284 39.9905 79.5757 39.9905V41.9746C80.7628 41.9576 81.6955 41.6608 82.3738 41.0843C82.8994 41.6778 83.5862 41.9746 84.4341 41.9746V39.9651C83.9932 39.9312 83.7643 39.6514 83.7473 39.1257V32.156C83.7473 31.0707 83.3319 30.1211 82.5009 29.3071C81.7209 28.561 80.7458 28.1879 79.5757 28.1879V30.1466C80.3727 30.1466 80.9663 30.4687 81.3563 31.1131C81.5598 31.4523 81.6615 31.8254 81.6615 32.2324V32.7156C81.6615 33.1396 80.6526 33.6314 78.6346 34.191C76.8201 34.6997 75.7772 35.0219 75.5059 35.1576C74.641 35.6663 74.2086 36.4718 74.2086 37.574V38.795ZM74.3867 31.6473L76.269 32.3595C76.269 31.4099 76.659 30.7486 77.4391 30.3755C77.7273 30.2398 78.0326 30.172 78.3548 30.172V28.1879C77.1847 28.1879 76.1842 28.6119 75.3533 29.4598C74.7089 30.1042 74.3867 30.8333 74.3867 31.6473Z" fill="#2743FD"/>
</svg>
