<svg width="45" height="40" viewBox="0 0 45 40" fill="none" xmlns="http://www.w3.org/2000/svg">
<circle cx="15" cy="20" r="15" fill="#005359"/>
<path d="M33 30C34.6569 30 36 28.6569 36 27C36 25.3431 34.6569 24 33 24C31.3431 24 30 25.3431 30 27C30 28.6569 31.3431 30 33 30Z" fill="#2DAD98" fill-opacity="0.67"/>
<path d="M37.2 18H34C32.8 12.6 27.6 9 22.2 10.2C18.2 11 15 14 14.2 18H12.8C10.8 18 9 19.8 9 21.8V24.4C9 25.8 10.2 27 11.6 27H12.2C12.2 24.4 14.4 22.2 17 22.2C19.6 22.2 21.8 24.4 21.8 27H28.2C28.2 24.4 30.4 22.2 33 22.2C35.6 22.2 37.8 24.4 37.8 27H38.4C39.8 27 41 25.8 41 24.4V22C41 19.8 39.2 18 37.2 18V18ZM17.4 18C18.4 14.2 22.4 12.2 26 13.2C28.2 13.8 30 15.6 30.8 18H17.4ZM17 24C15.4 24 14 25.4 14 27C14 28.6 15.4 30 17 30C18.6 30 20 28.6 20 27C20 25.4 18.6 24 17 24Z" fill="#2DAD98" fill-opacity="0.67"/>
</svg>
