<svg width="50" height="32" viewBox="0 0 50 32" fill="none" xmlns="http://www.w3.org/2000/svg">
<circle cx="15" cy="15" r="15" fill="#98602A"/>
<path d="M35.5 11.5H34.75L29.6509 5.12594C29.3698 4.77465 29.0133 4.49107 28.6078 4.29617C28.2022 4.10128 27.7581 4.00006 27.3081 4H17.2811C16.0544 4 14.9514 4.74672 14.4958 5.88578L12.25 11.6059C10.9581 11.9406 10 13.1036 10 14.5V19.75C10 20.1644 10.3356 20.5 10.75 20.5H13C13 22.9853 15.0147 25 17.5 25C19.9853 25 22 22.9853 22 20.5H28C28 22.9853 30.0147 25 32.5 25C34.9853 25 37 22.9853 37 20.5H39.25C39.6644 20.5 40 20.1644 40 19.75V16C40 13.5147 37.9853 11.5 35.5 11.5ZM17.5 22.75C16.2592 22.75 15.25 21.7408 15.25 20.5C15.25 19.2592 16.2592 18.25 17.5 18.25C18.7408 18.25 19.75 19.2592 19.75 20.5C19.75 21.7408 18.7408 22.75 17.5 22.75ZM20.875 11.5H15.4811L17.2811 7H20.875V11.5ZM23.125 11.5V7H27.3081L30.9081 11.5H23.125ZM32.5 22.75C31.2592 22.75 30.25 21.7408 30.25 20.5C30.25 19.2592 31.2592 18.25 32.5 18.25C33.7408 18.25 34.75 19.2592 34.75 20.5C34.75 21.7408 33.7408 22.75 32.5 22.75Z" fill="#FEE097" fill-opacity="0.52"/>
</svg>
